# xmcd
#
# Track frame offsets:
# 150
# 20219
# 40488
# 55520
# 74310
# 95843
# 117165
# 138122
# 155749
# 170740
#
# Disc length: 2521 seconds
#
# Revision: 1
# Processed by: cddbd v1.5.1PL2 Copyright (c) Steve Scherf et al.
# Submitted via: Easy CD Ripper v2.31
#
DISCID=8e09d70a
DTITLE=Leo - Prokleta Ljubav
DYEAR=2005
DGENRE=Blues
TTITLE0=Kad Strasti Nestane - Leo
TTITLE1=Prokleta Ljubav - Leo
TTITLE2=Udi, Udi - Leo
TTITLE3=Ne Mogu se Smiriti - Leo
TTITLE4=Ako Varas - Leo
TTITLE5=To Vodu Ne Pije - Leo
TTITLE6=Necu, Necu - Leo
TTITLE7=Atmosfera - Leo
TTITLE8=Spava Ti Se - Leo
TTITLE9=Ona Ko Da Zna - Leo
EXTD=
EXTT0=
EXTT1=
EXTT2=
EXTT3=
EXTT4=
EXTT5=
EXTT6=
EXTT7=
EXTT8=
EXTT9=
PLAYORDER=
